<mxfile host="app.diagrams.net" agent="Mozilla/5.0 (Windows NT 10.0; Win64; x64) AppleWebKit/537.36 (KHTML, like Gecko) Chrome/139.0.0.0 Safari/537.36 Edg/139.0.0.0" version="28.1.1">
  <diagram id="prtHgNgQTEPvFCAcTncT" name="Page-1">
    <mxGraphModel dx="1418" dy="786" grid="1" gridSize="10" guides="1" tooltips="1" connect="1" arrows="1" fold="1" page="1" pageScale="1" pageWidth="827" pageHeight="1169" math="0" shadow="0">
      <root>
        <mxCell id="0" />
        <mxCell id="1" parent="0" />
        <mxCell id="dNxyNK7c78bLwvsdeMH5-11" value="主题继承" style="swimlane;html=1;startSize=20;horizontal=1;containerType=tree;glass=0;" parent="1" vertex="1">
          <mxGeometry x="40" y="80" width="720" height="610" as="geometry" />
        </mxCell>
        <mxCell id="RWfXwklQVhIxapuO80Ik-25" style="edgeStyle=orthogonalEdgeStyle;rounded=0;orthogonalLoop=1;jettySize=auto;html=1;" edge="1" parent="dNxyNK7c78bLwvsdeMH5-11" source="RWfXwklQVhIxapuO80Ik-2" target="RWfXwklQVhIxapuO80Ik-21">
          <mxGeometry relative="1" as="geometry" />
        </mxCell>
        <mxCell id="RWfXwklQVhIxapuO80Ik-2" value="PC主题解析器" style="rounded=0;whiteSpace=wrap;html=1;" vertex="1" parent="dNxyNK7c78bLwvsdeMH5-11">
          <mxGeometry x="220" y="370" width="120" height="60" as="geometry" />
        </mxCell>
        <mxCell id="RWfXwklQVhIxapuO80Ik-26" style="edgeStyle=orthogonalEdgeStyle;rounded=0;orthogonalLoop=1;jettySize=auto;html=1;" edge="1" parent="dNxyNK7c78bLwvsdeMH5-11" source="RWfXwklQVhIxapuO80Ik-3" target="RWfXwklQVhIxapuO80Ik-21">
          <mxGeometry relative="1" as="geometry" />
        </mxCell>
        <mxCell id="RWfXwklQVhIxapuO80Ik-3" value="移动主题解析" style="rounded=0;whiteSpace=wrap;html=1;" vertex="1" parent="dNxyNK7c78bLwvsdeMH5-11">
          <mxGeometry x="220" y="460" width="120" height="60" as="geometry" />
        </mxCell>
        <mxCell id="RWfXwklQVhIxapuO80Ik-4" value="最终主题" style="rounded=0;whiteSpace=wrap;html=1;" vertex="1" parent="dNxyNK7c78bLwvsdeMH5-11">
          <mxGeometry x="440" y="510" width="120" height="60" as="geometry" />
        </mxCell>
        <mxCell id="RWfXwklQVhIxapuO80Ik-5" style="edgeStyle=orthogonalEdgeStyle;rounded=0;orthogonalLoop=1;jettySize=auto;html=1;entryX=0;entryY=0.5;entryDx=0;entryDy=0;" edge="1" parent="dNxyNK7c78bLwvsdeMH5-11" source="RWfXwklQVhIxapuO80Ik-1" target="RWfXwklQVhIxapuO80Ik-2">
          <mxGeometry relative="1" as="geometry" />
        </mxCell>
        <mxCell id="RWfXwklQVhIxapuO80Ik-6" style="edgeStyle=orthogonalEdgeStyle;rounded=0;orthogonalLoop=1;jettySize=auto;html=1;" edge="1" parent="dNxyNK7c78bLwvsdeMH5-11" source="RWfXwklQVhIxapuO80Ik-1" target="RWfXwklQVhIxapuO80Ik-3">
          <mxGeometry relative="1" as="geometry" />
        </mxCell>
        <mxCell id="RWfXwklQVhIxapuO80Ik-1" value="自定义主题" style="rounded=0;whiteSpace=wrap;html=1;" vertex="1" parent="dNxyNK7c78bLwvsdeMH5-11">
          <mxGeometry x="60" y="420" width="120" height="60" as="geometry" />
        </mxCell>
        <mxCell id="RWfXwklQVhIxapuO80Ik-18" style="edgeStyle=orthogonalEdgeStyle;rounded=0;orthogonalLoop=1;jettySize=auto;html=1;" edge="1" parent="dNxyNK7c78bLwvsdeMH5-11" source="RWfXwklQVhIxapuO80Ik-7">
          <mxGeometry relative="1" as="geometry">
            <mxPoint x="490" y="210" as="targetPoint" />
          </mxGeometry>
        </mxCell>
        <mxCell id="RWfXwklQVhIxapuO80Ik-7" value="预制主题" style="rounded=0;whiteSpace=wrap;html=1;" vertex="1" parent="dNxyNK7c78bLwvsdeMH5-11">
          <mxGeometry x="220" y="180" width="120" height="60" as="geometry" />
        </mxCell>
        <mxCell id="RWfXwklQVhIxapuO80Ik-8" value="原生主题" style="rounded=0;whiteSpace=wrap;html=1;" vertex="1" parent="dNxyNK7c78bLwvsdeMH5-11">
          <mxGeometry x="440" y="30" width="120" height="60" as="geometry" />
        </mxCell>
        <mxCell id="RWfXwklQVhIxapuO80Ik-17" style="edgeStyle=orthogonalEdgeStyle;rounded=0;orthogonalLoop=1;jettySize=auto;html=1;" edge="1" parent="dNxyNK7c78bLwvsdeMH5-11" source="RWfXwklQVhIxapuO80Ik-9">
          <mxGeometry relative="1" as="geometry">
            <mxPoint x="490" y="130" as="targetPoint" />
          </mxGeometry>
        </mxCell>
        <mxCell id="RWfXwklQVhIxapuO80Ik-9" value="UE主题原生微调" style="rounded=0;whiteSpace=wrap;html=1;" vertex="1" parent="dNxyNK7c78bLwvsdeMH5-11">
          <mxGeometry x="220" y="100" width="120" height="60" as="geometry" />
        </mxCell>
        <mxCell id="RWfXwklQVhIxapuO80Ik-10" value="" style="shape=flexArrow;endArrow=classic;html=1;rounded=0;" edge="1" parent="dNxyNK7c78bLwvsdeMH5-11">
          <mxGeometry width="50" height="50" relative="1" as="geometry">
            <mxPoint x="500" y="100" as="sourcePoint" />
            <mxPoint x="502" y="280" as="targetPoint" />
          </mxGeometry>
        </mxCell>
        <mxCell id="RWfXwklQVhIxapuO80Ik-29" value="编译时" style="edgeLabel;html=1;align=center;verticalAlign=middle;resizable=0;points=[];" vertex="1" connectable="0" parent="RWfXwklQVhIxapuO80Ik-10">
          <mxGeometry x="-0.2443" y="1" relative="1" as="geometry">
            <mxPoint as="offset" />
          </mxGeometry>
        </mxCell>
        <mxCell id="RWfXwklQVhIxapuO80Ik-24" style="edgeStyle=orthogonalEdgeStyle;rounded=0;orthogonalLoop=1;jettySize=auto;html=1;entryX=0.5;entryY=0;entryDx=0;entryDy=0;" edge="1" parent="dNxyNK7c78bLwvsdeMH5-11" source="RWfXwklQVhIxapuO80Ik-21" target="RWfXwklQVhIxapuO80Ik-4">
          <mxGeometry relative="1" as="geometry" />
        </mxCell>
        <mxCell id="RWfXwklQVhIxapuO80Ik-21" value="样式合成" style="rounded=0;whiteSpace=wrap;html=1;" vertex="1" parent="dNxyNK7c78bLwvsdeMH5-11">
          <mxGeometry x="440" y="400" width="120" height="60" as="geometry" />
        </mxCell>
        <mxCell id="RWfXwklQVhIxapuO80Ik-28" value="" style="shape=flexArrow;endArrow=classic;html=1;rounded=0;" edge="1" parent="dNxyNK7c78bLwvsdeMH5-11">
          <mxGeometry width="50" height="50" relative="1" as="geometry">
            <mxPoint x="500" y="310" as="sourcePoint" />
            <mxPoint x="500" y="390" as="targetPoint" />
          </mxGeometry>
        </mxCell>
        <mxCell id="RWfXwklQVhIxapuO80Ik-30" value="运行时" style="edgeLabel;html=1;align=center;verticalAlign=middle;resizable=0;points=[];" vertex="1" connectable="0" parent="RWfXwklQVhIxapuO80Ik-28">
          <mxGeometry x="0.025" y="-2" relative="1" as="geometry">
            <mxPoint as="offset" />
          </mxGeometry>
        </mxCell>
        <mxCell id="RWfXwklQVhIxapuO80Ik-27" value="" style="endArrow=none;dashed=1;html=1;rounded=0;" edge="1" parent="1">
          <mxGeometry width="50" height="50" relative="1" as="geometry">
            <mxPoint x="110" y="380" as="sourcePoint" />
            <mxPoint x="730" y="380" as="targetPoint" />
          </mxGeometry>
        </mxCell>
      </root>
    </mxGraphModel>
  </diagram>
</mxfile>
